<svg xmlns="http://www.w3.org/2000/svg" viewBox="0 0 87.5 67.5"><style type="text/css">
	.st0{fill:#FFFFFF;}
</style><path class="st0" d="M28.7 57.5H9.1c-3.5 0-6.3-2.8-6.3-6.3V10.7c0-3.5 2.8-6.3 6.3-6.3h55.2c3.5 0 6.3 2.8 6.3 6.3v2.7l-2 1.5v-4.1c0-2.4-1.9-4.3-4.3-4.3H9.1c-2.4 0-4.3 1.9-4.3 4.3v40.5c0 2.4 1.9 4.3 4.3 4.3h20.2L28.7 57.5zM42.1 55.5h22.2c2.4 0 4.3-1.9 4.3-4.3V29l2-1.6v23.8c0 3.5-2.8 6.3-6.3 6.3H40.6L42.1 55.5z"/><path class="st0" d="M18.2 20.9l-7.6-3.3c-1-0.4-1.1-0.9-1.1-1.5 0-0.8 0.5-1.3 1.3-1.3 0.3 0 0.7 0 1.3 0.3l9.6 4.4c0.5 0.2 0.9 0.8 0.9 1.3s-0.4 1.1-0.9 1.3L12 26.7c-0.6 0.3-1 0.3-1.3 0.3 -0.8 0-1.3-0.5-1.3-1.3 0-0.5 0.1-1.1 1.1-1.5L18.2 20.9z"/><path class="st0" d="M70.4 27.9c-0.5 0-1-0.2-1.4-0.6l-5.6-5.6c-0.4-0.4-0.6-0.9-0.6-1.4 0-0.5 0.2-1 0.6-1.4L75.2 7.1c0.8-0.8 2.1-0.7 2.8 0l5.6 5.6c0.4 0.4 0.6 0.9 0.6 1.4 0 0.5-0.2 1-0.6 1.4L71.8 27.4C71.4 27.7 70.9 27.9 70.4 27.9zM76.6 8.5L64.7 20.3l5.6 5.7c0 0 0 0 0 0l11.8-11.8L76.6 8.5z"/><path class="st0" d="M28 64.4c-0.5 0-1-0.2-1.4-0.7 -0.3-0.4-0.4-1-0.3-1.5l2.1-8c0.1-0.3 0.3-0.6 0.5-0.9l41.1-41.1c0.7-0.7 1.8-0.7 2.5-0.1l6 6c0.7 0.7 0.6 1.8-0.1 2.5L37.3 61.8c-0.2 0.2-0.5 0.4-0.8 0.5l-8 2.1C28.3 64.4 28.2 64.4 28 64.4zM71.3 13.7l-41 41.1 -2 7.6 7.7-2 41-41L71.3 13.7z"/><path class="st0" d="M32.9 57.9c-0.3 0-0.5-0.1-0.7-0.3 -0.4-0.4-0.4-1 0-1.4l41.5-41.5c0.4-0.4 1-0.4 1.4 0s0.4 1 0 1.4L33.6 57.6C33.4 57.8 33.1 57.9 32.9 57.9z"/></svg>
